ply
format ascii 1.0
comment Created by Blender 2.93.1 - www.blender.org
element vertex 96
property float x
property float y
property float z
property float nx
property float ny
property float nz
property float s
property float t
property uchar red
property uchar green
property uchar blue
property uchar alpha
element face 60
property list uchar uint vertex_indices
end_header
0.000000 2.000000 1.000000 -0.195090 0.000000 0.980785 1.000000 1.000000 55 42 255 255
-0.382683 -2.000000 0.923880 -0.195090 0.000000 0.980785 0.937500 0.500000 55 42 255 255
0.000000 -2.000000 1.000000 -0.195090 0.000000 0.980785 1.000000 0.500000 55 42 255 255
-0.382683 2.000000 0.923880 -0.555570 0.000000 0.831470 0.937500 1.000000 55 42 255 255
-0.707107 -2.000000 0.707107 -0.555570 0.000000 0.831470 0.875000 0.500000 55 42 255 255
-0.382683 -2.000000 0.923880 -0.555570 0.000000 0.831470 0.937500 0.500000 55 42 255 255
-0.707107 2.000000 0.707107 -0.831470 0.000000 0.555570 0.875000 1.000000 55 42 255 255
-0.923880 -2.000000 0.382683 -0.831470 0.000000 0.555570 0.812500 0.500000 55 42 255 255
-0.707107 -2.000000 0.707107 -0.831470 0.000000 0.555570 0.875000 0.500000 55 42 255 255
-0.923880 2.000000 0.382683 -0.980785 0.000000 0.195090 0.812500 1.000000 55 42 255 255
-1.000000 -2.000000 -0.000000 -0.980785 0.000000 0.195090 0.750000 0.500000 55 42 255 255
-0.923880 -2.000000 0.382683 -0.980785 0.000000 0.195090 0.812500 0.500000 55 42 255 255
-1.000000 2.000000 -0.000000 -0.980785 0.000000 -0.195090 0.750000 1.000000 55 42 255 255
-0.923880 -2.000000 -0.382683 -0.980785 0.000000 -0.195090 0.687500 0.500000 55 42 255 255
-1.000000 -2.000000 -0.000000 -0.980785 0.000000 -0.195090 0.750000 0.500000 55 42 255 255
-0.923880 2.000000 -0.382683 -0.831470 0.000000 -0.555570 0.687500 1.000000 55 42 255 255
-0.707107 -2.000000 -0.707107 -0.831470 0.000000 -0.555570 0.625000 0.500000 55 42 255 255
-0.923880 -2.000000 -0.382683 -0.831470 0.000000 -0.555570 0.687500 0.500000 55 42 255 255
-0.707107 2.000000 -0.707107 -0.555570 0.000000 -0.831470 0.625000 1.000000 55 42 255 255
-0.382683 -2.000000 -0.923880 -0.555570 0.000000 -0.831470 0.562500 0.500000 55 42 255 255
-0.707107 -2.000000 -0.707107 -0.555570 0.000000 -0.831470 0.625000 0.500000 55 42 255 255
-0.382683 2.000000 -0.923880 -0.195090 0.000000 -0.980785 0.562500 1.000000 55 42 255 255
0.000000 -2.000000 -1.000000 -0.195090 0.000000 -0.980785 0.500000 0.500000 55 42 255 255
-0.382683 -2.000000 -0.923880 -0.195090 0.000000 -0.980785 0.562500 0.500000 55 42 255 255
0.000000 2.000000 -1.000000 0.195090 0.000000 -0.980785 0.500000 1.000000 55 42 255 255
0.382683 -2.000000 -0.923880 0.195090 0.000000 -0.980785 0.437500 0.500000 55 42 255 255
0.000000 -2.000000 -1.000000 0.195090 0.000000 -0.980785 0.500000 0.500000 55 42 255 255
0.382683 2.000000 -0.923880 0.555570 0.000000 -0.831470 0.437500 1.000000 55 42 255 255
0.707107 -2.000000 -0.707107 0.555570 0.000000 -0.831470 0.375000 0.500000 55 42 255 255
0.382683 -2.000000 -0.923880 0.555570 0.000000 -0.831470 0.437500 0.500000 55 42 255 255
0.707107 2.000000 -0.707107 0.831469 0.000000 -0.555570 0.375000 1.000000 55 42 255 255
0.923880 -2.000000 -0.382684 0.831469 0.000000 -0.555570 0.312500 0.500000 55 42 255 255
0.707107 -2.000000 -0.707107 0.831469 0.000000 -0.555570 0.375000 0.500000 55 42 255 255
0.923880 2.000000 -0.382684 0.980785 0.000000 -0.195090 0.312500 1.000000 55 42 255 255
1.000000 -2.000000 0.000000 0.980785 0.000000 -0.195090 0.250000 0.500000 55 42 255 255
0.923880 -2.000000 -0.382684 0.980785 0.000000 -0.195090 0.312500 0.500000 55 42 255 255
1.000000 2.000000 0.000000 0.980785 0.000000 0.195090 0.250000 1.000000 55 42 255 255
0.923879 -2.000000 0.382684 0.980785 0.000000 0.195090 0.187500 0.500000 55 42 255 255
1.000000 -2.000000 0.000000 0.980785 0.000000 0.195090 0.250000 0.500000 55 42 255 255
0.923879 2.000000 0.382684 0.831470 0.000000 0.555570 0.187500 1.000000 55 42 255 255
0.707107 -2.000000 0.707107 0.831470 0.000000 0.555570 0.125000 0.500000 55 42 255 255
0.923879 -2.000000 0.382684 0.831470 0.000000 0.555570 0.187500 0.500000 55 42 255 255
-0.707107 2.000000 0.707107 0.000000 1.000000 -0.000000 0.419706 0.419706 55 42 255 255
0.707107 2.000000 0.707107 0.000000 1.000000 -0.000000 0.080294 0.419706 55 42 255 255
0.707107 2.000000 -0.707107 0.000000 1.000000 -0.000000 0.080294 0.080294 55 42 255 255
0.707107 2.000000 0.707107 0.555570 0.000000 0.831470 0.125000 1.000000 55 42 255 255
0.382683 -2.000000 0.923880 0.555570 0.000000 0.831470 0.062500 0.500000 55 42 255 255
0.707107 -2.000000 0.707107 0.555570 0.000000 0.831470 0.125000 0.500000 55 42 255 255
0.382683 2.000000 0.923880 0.195090 0.000000 0.980785 0.062500 1.000000 55 42 255 255
0.000000 -2.000000 1.000000 0.195090 0.000000 0.980785 0.000000 0.500000 55 42 255 255
0.382683 -2.000000 0.923880 0.195090 0.000000 0.980785 0.062500 0.500000 55 42 255 255
-0.923880 -2.000000 0.382683 -0.000000 -1.000000 0.000000 0.971731 0.341844 55 42 255 255
-0.382683 -2.000000 -0.923880 -0.000000 -1.000000 0.000000 0.841844 0.028269 55 42 255 255
0.923880 -2.000000 -0.382684 -0.000000 -1.000000 0.000000 0.528269 0.158156 55 42 255 255
-0.382683 2.000000 0.923880 -0.195090 0.000000 0.980785 0.937500 1.000000 55 42 255 255
-0.707107 2.000000 0.707107 -0.555570 0.000000 0.831470 0.875000 1.000000 55 42 255 255
-0.923880 2.000000 0.382683 -0.831470 0.000000 0.555570 0.812500 1.000000 55 42 255 255
-1.000000 2.000000 -0.000000 -0.980785 0.000000 0.195090 0.750000 1.000000 55 42 255 255
-0.923880 2.000000 -0.382683 -0.980785 0.000000 -0.195090 0.687500 1.000000 55 42 255 255
-0.707107 2.000000 -0.707107 -0.831470 0.000000 -0.555570 0.625000 1.000000 55 42 255 255
-0.382683 2.000000 -0.923880 -0.555570 0.000000 -0.831470 0.562500 1.000000 55 42 255 255
0.000000 2.000000 -1.000000 -0.195090 0.000000 -0.980785 0.500000 1.000000 55 42 255 255
0.382683 2.000000 -0.923880 0.195090 0.000000 -0.980785 0.437500 1.000000 55 42 255 255
0.707107 2.000000 -0.707107 0.555570 0.000000 -0.831470 0.375000 1.000000 55 42 255 255
0.923880 2.000000 -0.382684 0.831469 0.000000 -0.555570 0.312500 1.000000 55 42 255 255
1.000000 2.000000 0.000000 0.980785 0.000000 -0.195090 0.250000 1.000000 55 42 255 255
0.923879 2.000000 0.382684 0.980785 -0.000000 0.195090 0.187500 1.000000 55 42 255 255
0.707107 2.000000 0.707107 0.831470 -0.000000 0.555570 0.125000 1.000000 55 42 255 255
-0.382683 2.000000 0.923880 0.000000 1.000000 0.000000 0.341844 0.471731 55 42 255 255
0.000000 2.000000 1.000000 0.000000 1.000000 0.000000 0.250000 0.490000 55 42 255 255
0.382683 2.000000 0.923880 0.000000 1.000000 0.000000 0.158156 0.471731 55 42 255 255
0.923879 2.000000 0.382684 0.000000 1.000000 -0.000000 0.028269 0.341844 55 42 255 255
1.000000 2.000000 0.000000 0.000000 1.000000 -0.000000 0.010000 0.250000 55 42 255 255
0.923880 2.000000 -0.382684 0.000000 1.000000 0.000000 0.028269 0.158156 55 42 255 255
0.382683 2.000000 -0.923880 0.000000 1.000000 0.000000 0.158156 0.028269 55 42 255 255
0.000000 2.000000 -1.000000 0.000000 1.000000 0.000000 0.250000 0.010000 55 42 255 255
-0.382683 2.000000 -0.923880 0.000000 1.000000 0.000000 0.341844 0.028269 55 42 255 255
-0.707107 2.000000 -0.707107 0.000000 1.000000 0.000000 0.419706 0.080294 55 42 255 255
-0.923880 2.000000 -0.382683 0.000000 1.000000 0.000000 0.471731 0.158156 55 42 255 255
-1.000000 2.000000 -0.000000 0.000000 1.000000 0.000000 0.490000 0.250000 55 42 255 255
-0.923880 2.000000 0.382683 0.000000 1.000000 0.000000 0.471731 0.341844 55 42 255 255
0.382683 2.000000 0.923880 0.555570 -0.000000 0.831470 0.062500 1.000000 55 42 255 255
0.000000 2.000000 1.000000 0.195090 -0.000000 0.980785 0.000000 1.000000 55 42 255 255
0.382683 -2.000000 0.923880 0.000000 -1.000000 0.000000 0.658156 0.471731 55 42 255 255
0.000000 -2.000000 1.000000 0.000000 -1.000000 0.000000 0.750000 0.490000 55 42 255 255
-0.382683 -2.000000 0.923880 0.000000 -1.000000 0.000000 0.841844 0.471731 55 42 255 255
-0.707107 -2.000000 0.707107 0.000000 -1.000000 0.000000 0.919706 0.419706 55 42 255 255
-1.000000 -2.000000 -0.000000 0.000000 -1.000000 0.000000 0.990000 0.250000 55 42 255 255
-0.923880 -2.000000 -0.382683 0.000000 -1.000000 0.000000 0.971731 0.158156 55 42 255 255
-0.707107 -2.000000 -0.707107 0.000000 -1.000000 0.000000 0.919706 0.080294 55 42 255 255
0.000000 -2.000000 -1.000000 -0.000000 -1.000000 0.000000 0.750000 0.010000 55 42 255 255
0.382683 -2.000000 -0.923880 -0.000000 -1.000000 0.000000 0.658156 0.028269 55 42 255 255
0.707107 -2.000000 -0.707107 0.000000 -1.000000 0.000000 0.580294 0.080294 55 42 255 255
1.000000 -2.000000 0.000000 0.000000 -1.000000 -0.000000 0.510000 0.250000 55 42 255 255
0.923879 -2.000000 0.382684 0.000000 -1.000000 -0.000000 0.528269 0.341844 55 42 255 255
0.707107 -2.000000 0.707107 0.000000 -1.000000 0.000000 0.580294 0.419706 55 42 255 255
3 0 1 2
3 3 4 5
3 6 7 8
3 9 10 11
3 12 13 14
3 15 16 17
3 18 19 20
3 21 22 23
3 24 25 26
3 27 28 29
3 30 31 32
3 33 34 35
3 36 37 38
3 39 40 41
3 42 43 44
3 45 46 47
3 48 49 50
3 51 52 53
3 0 54 1
3 3 55 4
3 6 56 7
3 9 57 10
3 12 58 13
3 15 59 16
3 18 60 19
3 21 61 22
3 24 62 25
3 27 63 28
3 30 64 31
3 33 65 34
3 36 66 37
3 39 67 40
3 42 68 69
3 69 70 43
3 43 71 44
3 71 72 44
3 72 73 44
3 44 74 75
3 75 76 77
3 77 78 79
3 79 80 77
3 80 42 77
3 42 69 43
3 44 75 42
3 75 77 42
3 45 81 46
3 48 82 49
3 83 84 51
3 84 85 51
3 85 86 51
3 51 87 88
3 88 89 52
3 52 90 91
3 91 92 53
3 53 93 94
3 94 95 53
3 95 83 53
3 51 88 52
3 52 91 53
3 83 51 53
