ply
format ascii 1.0
comment Created by Blender 3.3.1 - www.blender.org
element vertex 4
property float x
property float y
property float z
property float nx
property float ny
property float nz
property float s
property float t
property uchar red
property uchar green
property uchar blue
property uchar alpha
element face 3
property list uchar uint vertex_indices
end_header
0.000000 -1.000000 2.000000 1.000000 0.000000 0.000000 0.000000 0.000000 232 255 46 255
0.000000 -1.000000 -2.000000 1.000000 0.000000 0.000000 1.000000 0.000000 232 255 46 255
0.000000 1.000000 -2.000000 1.000000 0.000000 0.000000 1.000000 1.000000 232 255 46 255
0.000000 1.000000 2.000000 1.000000 0.000000 0.000000 0.000000 1.000000 232 255 46 255
4 0 1 2 3
3 1 3 0
3 1 2 3
